# Tiled2Unity generated file. Do not modify by hand.
# Wavefront file for 'firstMap_mesh_0002.obj'

# Vertices (Count = 16)
v -1568 -1312 0
v -1600 -1312 0
v -1600 -1280 0
v -1568 -1280 0
v -1440 -1344 0
v -1472 -1344 0
v -1472 -1312 0
v -1440 -1312 0
v -1504 -1376 0
v -1536 -1376 0
v -1536 -1344 0
v -1504 -1344 0
v -1408 -1408 0
v -1440 -1408 0
v -1440 -1376 0
v -1408 -1376 0

# Texture cooridinates (Count = 4)
vt 0.5 0.8
vt 0.6 0.8
vt 0.6 0.9
vt 0.5 0.9

# Normal
vn 0 0 -1

# Mesh description
g firstMap_mesh_0002

# Faces
f 1/1/1 2/2/1 3/3/1 4/4/1
f 5/1/1 6/2/1 7/3/1 8/4/1
f 9/1/1 10/2/1 11/3/1 12/4/1
f 13/1/1 14/2/1 15/3/1 16/4/1

