# Tiled2Unity generated file. Do not modify by hand.
# Wavefront file for 'firstMap_mesh_0001.obj'

# Vertices (Count = 560)
v -1344 -1280 0
v -1376 -1280 0
v -1376 -1248 0
v -1344 -1248 0
v -1376 -1280 0
v -1408 -1280 0
v -1408 -1248 0
v -1376 -1248 0
v -1408 -1280 0
v -1440 -1280 0
v -1440 -1248 0
v -1408 -1248 0
v -1440 -1280 0
v -1472 -1280 0
v -1472 -1248 0
v -1440 -1248 0
v -1472 -1280 0
v -1504 -1280 0
v -1504 -1248 0
v -1472 -1248 0
v -1504 -1280 0
v -1536 -1280 0
v -1536 -1248 0
v -1504 -1248 0
v -1536 -1280 0
v -1568 -1280 0
v -1568 -1248 0
v -1536 -1248 0
v -1568 -1280 0
v -1600 -1280 0
v -1600 -1248 0
v -1568 -1248 0
v -1600 -1280 0
v -1632 -1280 0
v -1632 -1248 0
v -1600 -1248 0
v -1632 -1280 0
v -1664 -1280 0
v -1664 -1248 0
v -1632 -1248 0
v -1664 -1280 0
v -1696 -1280 0
v -1696 -1248 0
v -1664 -1248 0
v -1344 -1312 0
v -1376 -1312 0
v -1376 -1280 0
v -1344 -1280 0
v -1376 -1312 0
v -1408 -1312 0
v -1408 -1280 0
v -1376 -1280 0
v -1408 -1312 0
v -1440 -1312 0
v -1440 -1280 0
v -1408 -1280 0
v -1440 -1312 0
v -1472 -1312 0
v -1472 -1280 0
v -1440 -1280 0
v -1472 -1312 0
v -1504 -1312 0
v -1504 -1280 0
v -1472 -1280 0
v -1504 -1312 0
v -1536 -1312 0
v -1536 -1280 0
v -1504 -1280 0
v -1536 -1312 0
v -1568 -1312 0
v -1568 -1280 0
v -1536 -1280 0
v -1568 -1312 0
v -1600 -1312 0
v -1600 -1280 0
v -1568 -1280 0
v -1600 -1312 0
v -1632 -1312 0
v -1632 -1280 0
v -1600 -1280 0
v -1632 -1312 0
v -1664 -1312 0
v -1664 -1280 0
v -1632 -1280 0
v -1664 -1312 0
v -1696 -1312 0
v -1696 -1280 0
v -1664 -1280 0
v -1344 -1344 0
v -1376 -1344 0
v -1376 -1312 0
v -1344 -1312 0
v -1376 -1344 0
v -1408 -1344 0
v -1408 -1312 0
v -1376 -1312 0
v -1408 -1344 0
v -1440 -1344 0
v -1440 -1312 0
v -1408 -1312 0
v -1440 -1344 0
v -1472 -1344 0
v -1472 -1312 0
v -1440 -1312 0
v -1472 -1344 0
v -1504 -1344 0
v -1504 -1312 0
v -1472 -1312 0
v -1504 -1344 0
v -1536 -1344 0
v -1536 -1312 0
v -1504 -1312 0
v -1536 -1344 0
v -1568 -1344 0
v -1568 -1312 0
v -1536 -1312 0
v -1568 -1344 0
v -1600 -1344 0
v -1600 -1312 0
v -1568 -1312 0
v -1600 -1344 0
v -1632 -1344 0
v -1632 -1312 0
v -1600 -1312 0
v -1632 -1344 0
v -1664 -1344 0
v -1664 -1312 0
v -1632 -1312 0
v -1664 -1344 0
v -1696 -1344 0
v -1696 -1312 0
v -1664 -1312 0
v -1344 -1376 0
v -1376 -1376 0
v -1376 -1344 0
v -1344 -1344 0
v -1376 -1376 0
v -1408 -1376 0
v -1408 -1344 0
v -1376 -1344 0
v -1408 -1376 0
v -1440 -1376 0
v -1440 -1344 0
v -1408 -1344 0
v -1440 -1376 0
v -1472 -1376 0
v -1472 -1344 0
v -1440 -1344 0
v -1472 -1376 0
v -1504 -1376 0
v -1504 -1344 0
v -1472 -1344 0
v -1504 -1376 0
v -1536 -1376 0
v -1536 -1344 0
v -1504 -1344 0
v -1536 -1376 0
v -1568 -1376 0
v -1568 -1344 0
v -1536 -1344 0
v -1568 -1376 0
v -1600 -1376 0
v -1600 -1344 0
v -1568 -1344 0
v -1600 -1376 0
v -1632 -1376 0
v -1632 -1344 0
v -1600 -1344 0
v -1632 -1376 0
v -1664 -1376 0
v -1664 -1344 0
v -1632 -1344 0
v -1664 -1376 0
v -1696 -1376 0
v -1696 -1344 0
v -1664 -1344 0
v -1344 -1408 0
v -1376 -1408 0
v -1376 -1376 0
v -1344 -1376 0
v -1376 -1408 0
v -1408 -1408 0
v -1408 -1376 0
v -1376 -1376 0
v -1408 -1408 0
v -1440 -1408 0
v -1440 -1376 0
v -1408 -1376 0
v -1440 -1408 0
v -1472 -1408 0
v -1472 -1376 0
v -1440 -1376 0
v -1472 -1408 0
v -1504 -1408 0
v -1504 -1376 0
v -1472 -1376 0
v -1504 -1408 0
v -1536 -1408 0
v -1536 -1376 0
v -1504 -1376 0
v -1536 -1408 0
v -1568 -1408 0
v -1568 -1376 0
v -1536 -1376 0
v -1568 -1408 0
v -1600 -1408 0
v -1600 -1376 0
v -1568 -1376 0
v -1600 -1408 0
v -1632 -1408 0
v -1632 -1376 0
v -1600 -1376 0
v -1632 -1408 0
v -1664 -1408 0
v -1664 -1376 0
v -1632 -1376 0
v -1664 -1408 0
v -1696 -1408 0
v -1696 -1376 0
v -1664 -1376 0
v -1344 -1440 0
v -1376 -1440 0
v -1376 -1408 0
v -1344 -1408 0
v -1376 -1440 0
v -1408 -1440 0
v -1408 -1408 0
v -1376 -1408 0
v -1408 -1440 0
v -1440 -1440 0
v -1440 -1408 0
v -1408 -1408 0
v -1440 -1440 0
v -1472 -1440 0
v -1472 -1408 0
v -1440 -1408 0
v -1472 -1440 0
v -1504 -1440 0
v -1504 -1408 0
v -1472 -1408 0
v -1504 -1440 0
v -1536 -1440 0
v -1536 -1408 0
v -1504 -1408 0
v -1536 -1440 0
v -1568 -1440 0
v -1568 -1408 0
v -1536 -1408 0
v -1568 -1440 0
v -1600 -1440 0
v -1600 -1408 0
v -1568 -1408 0
v -1600 -1440 0
v -1632 -1440 0
v -1632 -1408 0
v -1600 -1408 0
v -1632 -1440 0
v -1664 -1440 0
v -1664 -1408 0
v -1632 -1408 0
v -1664 -1440 0
v -1696 -1440 0
v -1696 -1408 0
v -1664 -1408 0
v -1344 -1472 0
v -1376 -1472 0
v -1376 -1440 0
v -1344 -1440 0
v -1376 -1472 0
v -1408 -1472 0
v -1408 -1440 0
v -1376 -1440 0
v -1408 -1472 0
v -1440 -1472 0
v -1440 -1440 0
v -1408 -1440 0
v -1440 -1472 0
v -1472 -1472 0
v -1472 -1440 0
v -1440 -1440 0
v -1472 -1472 0
v -1504 -1472 0
v -1504 -1440 0
v -1472 -1440 0
v -1504 -1472 0
v -1536 -1472 0
v -1536 -1440 0
v -1504 -1440 0
v -1536 -1472 0
v -1568 -1472 0
v -1568 -1440 0
v -1536 -1440 0
v -1568 -1472 0
v -1600 -1472 0
v -1600 -1440 0
v -1568 -1440 0
v -1600 -1472 0
v -1632 -1472 0
v -1632 -1440 0
v -1600 -1440 0
v -1632 -1472 0
v -1664 -1472 0
v -1664 -1440 0
v -1632 -1440 0
v -1664 -1472 0
v -1696 -1472 0
v -1696 -1440 0
v -1664 -1440 0
v -1696 -1472 0
v -1728 -1472 0
v -1728 -1440 0
v -1696 -1440 0
v -1728 -1472 0
v -1760 -1472 0
v -1760 -1440 0
v -1728 -1440 0
v -1760 -1472 0
v -1792 -1472 0
v -1792 -1440 0
v -1760 -1440 0
v -1792 -1472 0
v -1824 -1472 0
v -1824 -1440 0
v -1792 -1440 0
v -1824 -1472 0
v -1856 -1472 0
v -1856 -1440 0
v -1824 -1440 0
v -1344 -1504 0
v -1376 -1504 0
v -1376 -1472 0
v -1344 -1472 0
v -1376 -1504 0
v -1408 -1504 0
v -1408 -1472 0
v -1376 -1472 0
v -1408 -1504 0
v -1440 -1504 0
v -1440 -1472 0
v -1408 -1472 0
v -1440 -1504 0
v -1472 -1504 0
v -1472 -1472 0
v -1440 -1472 0
v -1472 -1504 0
v -1504 -1504 0
v -1504 -1472 0
v -1472 -1472 0
v -1504 -1504 0
v -1536 -1504 0
v -1536 -1472 0
v -1504 -1472 0
v -1536 -1504 0
v -1568 -1504 0
v -1568 -1472 0
v -1536 -1472 0
v -1568 -1504 0
v -1600 -1504 0
v -1600 -1472 0
v -1568 -1472 0
v -1600 -1504 0
v -1632 -1504 0
v -1632 -1472 0
v -1600 -1472 0
v -1632 -1504 0
v -1664 -1504 0
v -1664 -1472 0
v -1632 -1472 0
v -1664 -1504 0
v -1696 -1504 0
v -1696 -1472 0
v -1664 -1472 0
v -1696 -1504 0
v -1728 -1504 0
v -1728 -1472 0
v -1696 -1472 0
v -1728 -1504 0
v -1760 -1504 0
v -1760 -1472 0
v -1728 -1472 0
v -1760 -1504 0
v -1792 -1504 0
v -1792 -1472 0
v -1760 -1472 0
v -1792 -1504 0
v -1824 -1504 0
v -1824 -1472 0
v -1792 -1472 0
v -1824 -1504 0
v -1856 -1504 0
v -1856 -1472 0
v -1824 -1472 0
v -1344 -1536 0
v -1376 -1536 0
v -1376 -1504 0
v -1344 -1504 0
v -1376 -1536 0
v -1408 -1536 0
v -1408 -1504 0
v -1376 -1504 0
v -1408 -1536 0
v -1440 -1536 0
v -1440 -1504 0
v -1408 -1504 0
v -1440 -1536 0
v -1472 -1536 0
v -1472 -1504 0
v -1440 -1504 0
v -1472 -1536 0
v -1504 -1536 0
v -1504 -1504 0
v -1472 -1504 0
v -1504 -1536 0
v -1536 -1536 0
v -1536 -1504 0
v -1504 -1504 0
v -1536 -1536 0
v -1568 -1536 0
v -1568 -1504 0
v -1536 -1504 0
v -1568 -1536 0
v -1600 -1536 0
v -1600 -1504 0
v -1568 -1504 0
v -1600 -1536 0
v -1632 -1536 0
v -1632 -1504 0
v -1600 -1504 0
v -1632 -1536 0
v -1664 -1536 0
v -1664 -1504 0
v -1632 -1504 0
v -1664 -1536 0
v -1696 -1536 0
v -1696 -1504 0
v -1664 -1504 0
v -1696 -1536 0
v -1728 -1536 0
v -1728 -1504 0
v -1696 -1504 0
v -1728 -1536 0
v -1760 -1536 0
v -1760 -1504 0
v -1728 -1504 0
v -1760 -1536 0
v -1792 -1536 0
v -1792 -1504 0
v -1760 -1504 0
v -1792 -1536 0
v -1824 -1536 0
v -1824 -1504 0
v -1792 -1504 0
v -1824 -1536 0
v -1856 -1536 0
v -1856 -1504 0
v -1824 -1504 0
v -1344 -1568 0
v -1376 -1568 0
v -1376 -1536 0
v -1344 -1536 0
v -1376 -1568 0
v -1408 -1568 0
v -1408 -1536 0
v -1376 -1536 0
v -1408 -1568 0
v -1440 -1568 0
v -1440 -1536 0
v -1408 -1536 0
v -1440 -1568 0
v -1472 -1568 0
v -1472 -1536 0
v -1440 -1536 0
v -1472 -1568 0
v -1504 -1568 0
v -1504 -1536 0
v -1472 -1536 0
v -1504 -1568 0
v -1536 -1568 0
v -1536 -1536 0
v -1504 -1536 0
v -1536 -1568 0
v -1568 -1568 0
v -1568 -1536 0
v -1536 -1536 0
v -1568 -1568 0
v -1600 -1568 0
v -1600 -1536 0
v -1568 -1536 0
v -1600 -1568 0
v -1632 -1568 0
v -1632 -1536 0
v -1600 -1536 0
v -1632 -1568 0
v -1664 -1568 0
v -1664 -1536 0
v -1632 -1536 0
v -1664 -1568 0
v -1696 -1568 0
v -1696 -1536 0
v -1664 -1536 0
v -1696 -1568 0
v -1728 -1568 0
v -1728 -1536 0
v -1696 -1536 0
v -1728 -1568 0
v -1760 -1568 0
v -1760 -1536 0
v -1728 -1536 0
v -1760 -1568 0
v -1792 -1568 0
v -1792 -1536 0
v -1760 -1536 0
v -1792 -1568 0
v -1824 -1568 0
v -1824 -1536 0
v -1792 -1536 0
v -1664 -1600 0
v -1696 -1600 0
v -1696 -1568 0
v -1664 -1568 0
v -1696 -1600 0
v -1728 -1600 0
v -1728 -1568 0
v -1696 -1568 0
v -1728 -1600 0
v -1760 -1600 0
v -1760 -1568 0
v -1728 -1568 0
v -1760 -1600 0
v -1792 -1600 0
v -1792 -1568 0
v -1760 -1568 0
v -1792 -1600 0
v -1824 -1600 0
v -1824 -1568 0
v -1792 -1568 0
v -1664 -1632 0
v -1696 -1632 0
v -1696 -1600 0
v -1664 -1600 0
v -1696 -1632 0
v -1728 -1632 0
v -1728 -1600 0
v -1696 -1600 0
v -1728 -1632 0
v -1760 -1632 0
v -1760 -1600 0
v -1728 -1600 0
v -1760 -1632 0
v -1792 -1632 0
v -1792 -1600 0
v -1760 -1600 0
v -1696 -1664 0
v -1728 -1664 0
v -1728 -1632 0
v -1696 -1632 0
v -1728 -1664 0
v -1760 -1664 0
v -1760 -1632 0
v -1728 -1632 0

# Texture cooridinates (Count = 10)
vt 0 0.9
vt 0.1 0.9
vt 0.1 1
vt 0 1
vt 0.1 0.8
vt 0.2 0.8
vt 0.2 0.9
vt 0.2 1
vt 0.3 0.9
vt 0.3 1

# Normal
vn 0 0 -1

# Mesh description
g firstMap_mesh_0001

# Faces
f 1/1/1 2/2/1 3/3/1 4/4/1
f 5/1/1 6/2/1 7/3/1 8/4/1
f 9/1/1 10/2/1 11/3/1 12/4/1
f 13/1/1 14/2/1 15/3/1 16/4/1
f 17/1/1 18/2/1 19/3/1 20/4/1
f 21/1/1 22/2/1 23/3/1 24/4/1
f 25/1/1 26/2/1 27/3/1 28/4/1
f 29/1/1 30/2/1 31/3/1 32/4/1
f 33/1/1 34/2/1 35/3/1 36/4/1
f 37/1/1 38/2/1 39/3/1 40/4/1
f 41/1/1 42/2/1 43/3/1 44/4/1
f 45/1/1 46/2/1 47/3/1 48/4/1
f 49/1/1 50/2/1 51/3/1 52/4/1
f 53/1/1 54/2/1 55/3/1 56/4/1
f 57/1/1 58/2/1 59/3/1 60/4/1
f 61/5/1 62/6/1 63/7/1 64/2/1
f 65/1/1 66/2/1 67/3/1 68/4/1
f 69/1/1 70/2/1 71/3/1 72/4/1
f 73/5/1 74/6/1 75/7/1 76/2/1
f 77/1/1 78/2/1 79/3/1 80/4/1
f 81/1/1 82/2/1 83/3/1 84/4/1
f 85/1/1 86/2/1 87/3/1 88/4/1
f 89/1/1 90/2/1 91/3/1 92/4/1
f 93/1/1 94/2/1 95/3/1 96/4/1
f 97/5/1 98/6/1 99/7/1 100/2/1
f 101/1/1 102/2/1 103/3/1 104/4/1
f 105/1/1 106/2/1 107/3/1 108/4/1
f 109/1/1 110/2/1 111/3/1 112/4/1
f 113/1/1 114/2/1 115/3/1 116/4/1
f 117/1/1 118/2/1 119/3/1 120/4/1
f 121/1/1 122/2/1 123/3/1 124/4/1
f 125/1/1 126/2/1 127/3/1 128/4/1
f 129/1/1 130/2/1 131/3/1 132/4/1
f 133/1/1 134/2/1 135/3/1 136/4/1
f 137/1/1 138/2/1 139/3/1 140/4/1
f 141/1/1 142/2/1 143/3/1 144/4/1
f 145/1/1 146/2/1 147/3/1 148/4/1
f 149/1/1 150/2/1 151/3/1 152/4/1
f 153/1/1 154/2/1 155/3/1 156/4/1
f 157/1/1 158/2/1 159/3/1 160/4/1
f 161/1/1 162/2/1 163/3/1 164/4/1
f 165/1/1 166/2/1 167/3/1 168/4/1
f 169/1/1 170/2/1 171/3/1 172/4/1
f 173/1/1 174/2/1 175/3/1 176/4/1
f 177/1/1 178/2/1 179/3/1 180/4/1
f 181/1/1 182/2/1 183/3/1 184/4/1
f 185/1/1 186/2/1 187/3/1 188/4/1
f 189/1/1 190/2/1 191/3/1 192/4/1
f 193/1/1 194/2/1 195/3/1 196/4/1
f 197/1/1 198/2/1 199/3/1 200/4/1
f 201/1/1 202/2/1 203/3/1 204/4/1
f 205/1/1 206/2/1 207/3/1 208/4/1
f 209/1/1 210/2/1 211/3/1 212/4/1
f 213/2/1 214/7/1 215/8/1 216/3/1
f 217/1/1 218/2/1 219/3/1 220/4/1
f 221/1/1 222/2/1 223/3/1 224/4/1
f 225/1/1 226/2/1 227/3/1 228/4/1
f 229/1/1 230/2/1 231/3/1 232/4/1
f 233/1/1 234/2/1 235/3/1 236/4/1
f 237/1/1 238/2/1 239/3/1 240/4/1
f 241/1/1 242/2/1 243/3/1 244/4/1
f 245/1/1 246/2/1 247/3/1 248/4/1
f 249/1/1 250/2/1 251/3/1 252/4/1
f 253/5/1 254/6/1 255/7/1 256/2/1
f 257/7/1 258/9/1 259/10/1 260/8/1
f 261/2/1 262/7/1 263/8/1 264/3/1
f 265/1/1 266/2/1 267/3/1 268/4/1
f 269/1/1 270/2/1 271/3/1 272/4/1
f 273/1/1 274/2/1 275/3/1 276/4/1
f 277/1/1 278/2/1 279/3/1 280/4/1
f 281/1/1 282/2/1 283/3/1 284/4/1
f 285/1/1 286/2/1 287/3/1 288/4/1
f 289/1/1 290/2/1 291/3/1 292/4/1
f 293/1/1 294/2/1 295/3/1 296/4/1
f 297/1/1 298/2/1 299/3/1 300/4/1
f 301/1/1 302/2/1 303/3/1 304/4/1
f 305/2/1 306/7/1 307/8/1 308/3/1
f 309/2/1 310/7/1 311/8/1 312/3/1
f 313/7/1 314/9/1 315/10/1 316/8/1
f 317/7/1 318/9/1 319/10/1 320/8/1
f 321/2/1 322/7/1 323/8/1 324/3/1
f 325/1/1 326/2/1 327/3/1 328/4/1
f 329/1/1 330/2/1 331/3/1 332/4/1
f 333/1/1 334/2/1 335/3/1 336/4/1
f 337/1/1 338/2/1 339/3/1 340/4/1
f 341/1/1 342/2/1 343/3/1 344/4/1
f 345/1/1 346/2/1 347/3/1 348/4/1
f 349/1/1 350/2/1 351/3/1 352/4/1
f 353/1/1 354/2/1 355/3/1 356/4/1
f 357/1/1 358/2/1 359/3/1 360/4/1
f 361/1/1 362/2/1 363/3/1 364/4/1
f 365/1/1 366/2/1 367/3/1 368/4/1
f 369/1/1 370/2/1 371/3/1 372/4/1
f 373/7/1 374/9/1 375/10/1 376/8/1
f 377/7/1 378/9/1 379/10/1 380/8/1
f 381/1/1 382/2/1 383/3/1 384/4/1
f 385/1/1 386/2/1 387/3/1 388/4/1
f 389/7/1 390/9/1 391/10/1 392/8/1
f 393/1/1 394/2/1 395/3/1 396/4/1
f 397/1/1 398/2/1 399/3/1 400/4/1
f 401/1/1 402/2/1 403/3/1 404/4/1
f 405/1/1 406/2/1 407/3/1 408/4/1
f 409/1/1 410/2/1 411/3/1 412/4/1
f 413/1/1 414/2/1 415/3/1 416/4/1
f 417/1/1 418/2/1 419/3/1 420/4/1
f 421/1/1 422/2/1 423/3/1 424/4/1
f 425/1/1 426/2/1 427/3/1 428/4/1
f 429/1/1 430/2/1 431/3/1 432/4/1
f 433/1/1 434/2/1 435/3/1 436/4/1
f 437/1/1 438/2/1 439/3/1 440/4/1
f 441/2/1 442/7/1 443/8/1 444/3/1
f 445/2/1 446/7/1 447/8/1 448/3/1
f 449/7/1 450/9/1 451/10/1 452/8/1
f 453/1/1 454/2/1 455/3/1 456/4/1
f 457/1/1 458/2/1 459/3/1 460/4/1
f 461/1/1 462/2/1 463/3/1 464/4/1
f 465/1/1 466/2/1 467/3/1 468/4/1
f 469/1/1 470/2/1 471/3/1 472/4/1
f 473/1/1 474/2/1 475/3/1 476/4/1
f 477/1/1 478/2/1 479/3/1 480/4/1
f 481/1/1 482/2/1 483/3/1 484/4/1
f 485/1/1 486/2/1 487/3/1 488/4/1
f 489/1/1 490/2/1 491/3/1 492/4/1
f 493/1/1 494/2/1 495/3/1 496/4/1
f 497/1/1 498/2/1 499/3/1 500/4/1
f 501/7/1 502/9/1 503/10/1 504/8/1
f 505/2/1 506/7/1 507/8/1 508/3/1
f 509/2/1 510/7/1 511/8/1 512/3/1
f 513/2/1 514/7/1 515/8/1 516/3/1
f 517/7/1 518/9/1 519/10/1 520/8/1
f 521/2/1 522/7/1 523/8/1 524/3/1
f 525/7/1 526/9/1 527/10/1 528/8/1
f 529/2/1 530/7/1 531/8/1 532/3/1
f 533/2/1 534/7/1 535/8/1 536/3/1
f 537/2/1 538/7/1 539/8/1 540/3/1
f 541/1/1 542/2/1 543/3/1 544/4/1
f 545/2/1 546/7/1 547/8/1 548/3/1
f 549/1/1 550/2/1 551/3/1 552/4/1
f 553/2/1 554/7/1 555/8/1 556/3/1
f 557/1/1 558/2/1 559/3/1 560/4/1

